<svg width="20" height="20" viewBox="0 0 20 20" fill="none" xmlns="http://www.w3.org/2000/svg">
<path d="M0.81427 1.00755C0.81427 0.790056 0.900667 0.581474 1.05446 0.427686C1.20824 0.273897 1.41683 0.1875 1.63432 0.1875H2.24443C3.28316 0.1875 3.90639 0.886179 4.26174 1.53566C4.49901 1.96864 4.67067 2.47051 4.80516 2.92536C4.84154 2.92249 4.87801 2.92103 4.9145 2.92099H18.5798C19.4873 2.92099 20.1433 3.78914 19.894 4.66276L17.8953 11.6703C17.7161 12.2989 17.337 12.8519 16.8153 13.2457C16.2937 13.6395 15.6579 13.8526 15.0043 13.8527H8.50084C7.84206 13.8528 7.2015 13.6364 6.67763 13.237C6.15375 12.8376 5.77555 12.2772 5.60115 11.6419L4.77017 8.61101L3.3925 3.96627L3.3914 3.95752C3.22083 3.33757 3.0612 2.75698 2.82284 2.32399C2.59432 1.90304 2.41063 1.82759 2.24552 1.82759H1.63432C1.41683 1.82759 1.20824 1.74119 1.05446 1.58741C0.900667 1.43362 0.81427 1.22504 0.81427 1.00755ZM6.36106 8.21302L7.1822 11.2078C7.34621 11.8004 7.88526 12.2127 8.50084 12.2127H15.0043C15.3014 12.2126 15.5904 12.1158 15.8276 11.9369C16.0647 11.758 16.2371 11.5066 16.3186 11.2209L18.2178 4.56108H5.28079L6.34576 8.15507L6.36106 8.21302ZM10.1081 17.1351C10.1081 17.7151 9.87773 18.2713 9.46763 18.6814C9.05753 19.0915 8.50131 19.3219 7.92134 19.3219C7.34136 19.3219 6.78515 19.0915 6.37504 18.6814C5.96494 18.2713 5.73455 17.7151 5.73455 17.1351C5.73455 16.5551 5.96494 15.9989 6.37504 15.5888C6.78515 15.1787 7.34136 14.9483 7.92134 14.9483C8.50131 14.9483 9.05753 15.1787 9.46763 15.5888C9.87773 15.9989 10.1081 16.5551 10.1081 17.1351ZM8.46803 17.1351C8.46803 16.9901 8.41044 16.8511 8.30791 16.7485C8.20539 16.646 8.06633 16.5884 7.92134 16.5884C7.77634 16.5884 7.63729 16.646 7.53476 16.7485C7.43224 16.8511 7.37464 16.9901 7.37464 17.1351C7.37464 17.2801 7.43224 17.4192 7.53476 17.5217C7.63729 17.6242 7.77634 17.6818 7.92134 17.6818C8.06633 17.6818 8.20539 17.6242 8.30791 17.5217C8.41044 17.4192 8.46803 17.2801 8.46803 17.1351ZM17.7619 17.1351C17.7619 17.7151 17.5315 18.2713 17.1214 18.6814C16.7113 19.0915 16.1551 19.3219 15.5751 19.3219C14.9951 19.3219 14.4389 19.0915 14.0288 18.6814C13.6187 18.2713 13.3883 17.7151 13.3883 17.1351C13.3883 16.5551 13.6187 15.9989 14.0288 15.5888C14.4389 15.1787 14.9951 14.9483 15.5751 14.9483C16.1551 14.9483 16.7113 15.1787 17.1214 15.5888C17.5315 15.9989 17.7619 16.5551 17.7619 17.1351ZM16.1218 17.1351C16.1218 16.9901 16.0642 16.8511 15.9617 16.7485C15.8592 16.646 15.7201 16.5884 15.5751 16.5884C15.4301 16.5884 15.2911 16.646 15.1885 16.7485C15.086 16.8511 15.0284 16.9901 15.0284 17.1351C15.0284 17.2801 15.086 17.4192 15.1885 17.5217C15.2911 17.6242 15.4301 17.6818 15.5751 17.6818C15.7201 17.6818 15.8592 17.6242 15.9617 17.5217C16.0642 17.4192 16.1218 17.2801 16.1218 17.1351Z" fill="#32CD32"/>
</svg>
