<svg width="7" height="7" viewBox="0 0 7 7" fill="none" xmlns="http://www.w3.org/2000/svg">
<path d="M0.972412 0.625195C0.972412 0.558839 0.998772 0.495201 1.04569 0.44828C1.09261 0.40136 1.15625 0.375 1.22261 0.375H1.40875C1.72567 0.375 1.91581 0.588166 2.02423 0.78632C2.09662 0.918423 2.14899 1.07154 2.19003 1.21032C2.20112 1.20944 2.21225 1.209 2.22339 1.20898H6.39263C6.66951 1.20898 6.86967 1.47385 6.79361 1.7404L6.1838 3.87839C6.12913 4.07016 6.01346 4.23889 5.85431 4.35904C5.69516 4.47918 5.50119 4.5442 5.30178 4.54424H3.31757C3.11658 4.54425 2.92115 4.47825 2.76131 4.35639C2.60148 4.23452 2.48609 4.06354 2.43288 3.86972L2.17935 2.945L1.75902 1.5279L1.75869 1.52523C1.70665 1.33608 1.65795 1.15894 1.58522 1.02684C1.5155 0.898407 1.45946 0.875389 1.40909 0.875389H1.22261C1.15625 0.875389 1.09261 0.84903 1.04569 0.802109C0.998772 0.755188 0.972412 0.69155 0.972412 0.625195ZM2.66473 2.82357L2.91526 3.73728C2.9653 3.91809 3.12976 4.04385 3.31757 4.04385H5.30178C5.39242 4.04385 5.48059 4.01432 5.55294 3.95972C5.6253 3.90513 5.67789 3.82844 5.70276 3.74128L6.28221 1.70937H2.33514L2.66006 2.80589L2.66473 2.82357ZM3.80795 5.54569C3.80795 5.72264 3.73766 5.89234 3.61254 6.01746C3.48742 6.14258 3.31771 6.21287 3.14077 6.21287C2.96382 6.21287 2.79412 6.14258 2.66899 6.01746C2.54387 5.89234 2.47358 5.72264 2.47358 5.54569C2.47358 5.36874 2.54387 5.19904 2.66899 5.07392C2.79412 4.9488 2.96382 4.8785 3.14077 4.8785C3.31771 4.8785 3.48742 4.9488 3.61254 5.07392C3.73766 5.19904 3.80795 5.36874 3.80795 5.54569ZM3.30756 5.54569C3.30756 5.50145 3.28999 5.45903 3.25871 5.42775C3.22743 5.39646 3.185 5.37889 3.14077 5.37889C3.09653 5.37889 3.0541 5.39646 3.02282 5.42775C2.99154 5.45903 2.97397 5.50145 2.97397 5.54569C2.97397 5.58993 2.99154 5.63235 3.02282 5.66363C3.0541 5.69491 3.09653 5.71248 3.14077 5.71248C3.185 5.71248 3.22743 5.69491 3.25871 5.66363C3.28999 5.63235 3.30756 5.58993 3.30756 5.54569ZM6.1431 5.54569C6.1431 5.72264 6.07281 5.89234 5.94769 6.01746C5.82257 6.14258 5.65287 6.21287 5.47592 6.21287C5.29897 6.21287 5.12927 6.14258 5.00415 6.01746C4.87902 5.89234 4.80873 5.72264 4.80873 5.54569C4.80873 5.36874 4.87902 5.19904 5.00415 5.07392C5.12927 4.9488 5.29897 4.8785 5.47592 4.8785C5.65287 4.8785 5.82257 4.9488 5.94769 5.07392C6.07281 5.19904 6.1431 5.36874 6.1431 5.54569ZM5.64271 5.54569C5.64271 5.50145 5.62514 5.45903 5.59386 5.42775C5.56258 5.39646 5.52015 5.37889 5.47592 5.37889C5.43168 5.37889 5.38925 5.39646 5.35797 5.42775C5.32669 5.45903 5.30912 5.50145 5.30912 5.54569C5.30912 5.58993 5.32669 5.63235 5.35797 5.66363C5.38925 5.69491 5.43168 5.71248 5.47592 5.71248C5.52015 5.71248 5.56258 5.69491 5.59386 5.66363C5.62514 5.63235 5.64271 5.58993 5.64271 5.54569Z" fill="#32CD32"/>
</svg>
