<svg width="128" height="128" viewBox="0 0 128 128" fill="none" xmlns="http://www.w3.org/2000/svg">
<g id="ep:food">
<path id="Vector" d="M16.3662 43.8064V43.7349C16.3661 36.6789 18.4558 29.781 22.3717 23.9114C26.2876 18.0417 31.8542 13.4634 38.3692 10.754C44.8843 8.04453 52.0558 7.3254 58.9791 8.68729C65.9024 10.0492 72.2672 13.4311 77.2706 18.4063C81.2073 16.4633 85.6044 15.6464 89.9763 16.0458C94.3481 16.4452 98.5244 18.0454 102.044 20.6695C105.563 23.2937 108.289 26.8397 109.919 30.9157C111.55 34.9918 112.022 39.4392 111.283 43.7667C112.369 43.8675 113.423 44.1911 114.378 44.7172C115.334 45.2434 116.17 45.9609 116.836 46.8249C117.502 47.6888 117.983 48.6808 118.248 49.7388C118.514 50.7968 118.558 51.8982 118.379 52.9742C114.791 74.5562 105.917 88.2167 91.7724 93.9634V99.2974C91.7724 102.455 90.518 105.484 88.2852 107.716C86.0523 109.949 83.0239 111.204 79.8662 111.204H48.1162C44.9584 111.204 41.93 109.949 39.6972 107.716C37.4643 105.484 36.2099 102.455 36.2099 99.2974V93.9634C22.0653 88.2167 13.1912 74.5562 9.60342 52.9742C9.43027 51.9268 9.46899 50.8553 9.71728 49.8231C9.96557 48.7909 10.4184 47.8191 11.049 46.965C11.6795 46.1109 12.475 45.392 13.3883 44.8508C14.3016 44.3097 15.3142 43.9572 16.3662 43.8143V43.8064ZM24.3037 43.7349H32.2412C32.2412 38.472 34.3318 33.4247 38.0533 29.7033C41.7747 25.9818 46.822 23.8912 52.0849 23.8912C57.3478 23.8912 62.3951 25.9818 66.1166 29.7033C69.838 33.4247 71.9287 38.472 71.9287 43.7349H79.8662C79.8662 36.3669 76.9392 29.3006 71.7292 24.0906C66.5192 18.8806 59.453 15.9537 52.0849 15.9537C44.7169 15.9537 37.6506 18.8806 32.4406 24.0906C27.2306 29.3006 24.3037 36.3669 24.3037 43.7349ZM40.1787 43.7349H63.9912C63.9912 40.5772 62.7368 37.5488 60.5039 35.3159C58.2711 33.0831 55.2427 31.8287 52.0849 31.8287C48.9272 31.8287 45.8988 33.0831 43.6659 35.3159C41.4331 37.5488 40.1787 40.5772 40.1787 43.7349ZM94.6776 43.7349H103.179C103.778 41.3892 103.834 38.9376 103.342 36.567C102.85 34.1963 101.824 31.9693 100.341 30.0554C98.8581 28.1416 96.9579 26.5915 94.7853 25.5232C92.6126 24.455 90.2248 23.8968 87.8037 23.8912C85.8987 23.8912 84.0889 24.2245 82.4062 24.8357C83.8111 27.09 84.97 29.5188 85.859 32.0668C87.3708 31.6918 88.9594 31.769 90.4278 32.2888C91.8961 32.8086 93.1795 33.7481 94.1187 34.9908C95.0578 36.2334 95.6114 37.7245 95.7108 39.279C95.8101 40.8334 95.4509 42.3828 94.6776 43.7349ZM83.8349 95.3287H44.1474V99.2974C44.1474 100.35 44.5656 101.359 45.3098 102.104C46.0541 102.848 47.0636 103.266 48.1162 103.266H79.8662C80.9188 103.266 81.9282 102.848 82.6725 102.104C83.4168 101.359 83.8349 100.35 83.8349 99.2974V95.3287ZM41.3534 87.3912H86.6289C99.2178 83.3431 107.187 71.8972 110.553 51.6724H17.4298C20.7953 71.8972 28.7645 83.3431 41.3534 87.3912Z" fill="#32CD32"/>
</g>
</svg>
