<svg width="58" height="58" viewBox="0 0 58 58" fill="none" xmlns="http://www.w3.org/2000/svg">
<path d="M44.769 14.8025C44.3631 8.07304 38.3726 2.72656 31.0222 2.72656C26.6519 2.72656 22.764 4.62035 20.2377 7.56584C19.0137 7.23032 17.7504 7.05975 16.4813 7.05864C9.13085 7.05864 3.17235 12.5917 3.17235 19.4144C3.17235 21.8652 3.95047 24.1436 5.27577 26.0649C3.49568 28.2518 2.42621 30.9663 2.42621 33.9189C2.42621 41.1272 8.71958 46.9693 16.4821 46.9693C19.8549 46.9693 22.931 45.8466 25.3506 44.0061C25.4092 44.3925 25.4634 44.7878 25.5229 45.1715C26.1003 48.9413 26.6057 52.5628 26.3455 56.0226L32.5633 55.9559C32.3102 52.0929 31.3242 48.4785 30.3276 45.0596C32.0106 45.8952 33.8643 46.3297 35.7433 46.3289C42.0385 46.3289 47.1487 41.6611 47.3041 35.8509C52.1603 34.5745 55.7222 30.4369 55.7222 25.5204C55.7222 19.7786 50.8705 15.1037 44.769 14.8025ZM46.6264 33.2741L44.6935 33.7821L44.6393 35.7799C44.5229 40.1279 40.532 43.6641 35.7424 43.6641C33.2171 43.6641 30.8321 42.6826 29.1355 40.9735C28.4489 38.5663 27.8306 36.1805 27.4371 33.7662C28.8584 33.6978 30.2423 33.5245 31.6306 33.2687C33.5644 32.9054 35.4626 32.3609 37.2596 31.5846C39.0539 30.8118 40.7443 29.8009 42.1966 28.5352C43.6371 27.2873 44.829 25.7787 45.7097 24.0885C44.7133 25.6869 43.4251 27.0836 41.9123 28.2056C40.4067 29.3284 38.7048 30.1749 36.9291 30.7869C35.1517 31.4007 33.297 31.7862 31.4272 31.995C30.0246 32.1527 28.6126 32.2106 27.2017 32.1682C26.8074 28.902 26.882 25.5834 27.5908 22.3191C28.3743 18.6718 29.903 15.1339 31.9096 11.8499C29.4775 14.8514 27.4318 18.217 26.0932 21.9149C25.316 24.0459 24.8079 26.2798 24.5236 28.5476C23.8701 28.1847 23.2323 27.7941 22.6121 27.3769C21.47 26.6122 20.4018 25.7427 19.4214 24.7796C17.4779 22.8636 15.9323 20.4573 15.4677 17.7161C15.6312 20.4892 16.9423 23.1505 18.7534 25.3472C19.6688 26.4551 20.6861 27.4746 21.7922 28.3921C22.6094 29.0717 23.4444 29.7023 24.3504 30.2868C24.2695 31.3756 24.2387 32.4676 24.258 33.5592C24.2838 35.3784 24.4348 37.1824 24.6426 38.9678C23.9828 38.9231 23.3254 38.8478 22.6725 38.7422C21.3099 38.5255 19.9754 38.1594 18.693 37.6505C16.1304 36.6379 13.8173 34.9262 12.2176 32.6381C13.558 35.0719 15.736 37.0936 18.3093 38.4251C19.6042 39.0983 20.9694 39.6265 22.3802 40C23.1921 40.2123 24.004 40.3846 24.8354 40.509C24.8532 40.6369 24.8736 40.7604 24.8914 40.8883C22.7275 43.0583 19.6808 44.3054 16.4839 44.3054C10.2012 44.3054 5.09101 39.6456 5.09101 33.9189C5.09101 31.6903 5.86913 29.5567 7.34276 27.7481L8.60499 26.1981L7.46979 24.5522C6.40209 23.0039 5.83804 21.2274 5.83804 19.4144C5.83804 14.0706 10.6134 9.72344 16.4821 9.72344C17.5036 9.72344 18.5314 9.8629 19.5369 10.1365L21.1642 10.5806L22.2612 9.30062C24.3913 6.81614 27.5846 5.39136 31.0222 5.39136C36.9149 5.39136 41.7844 9.59553 42.1086 14.9624L42.2516 17.3457L44.6375 17.4638C49.3587 17.6974 53.0574 21.2354 53.0574 25.5204C53.0574 29.0903 50.4122 32.2783 46.6264 33.2741Z" fill="#32CD32"/>
</svg>
