<svg width="58" height="58" viewBox="0 0 58 58" fill="none" xmlns="http://www.w3.org/2000/svg">
<path d="M29.1684 34.1042H31.5371C34.1427 34.1042 36.2745 31.9724 36.2745 29.3668V5.67969H14.9561C11.403 5.67969 8.30005 7.64569 6.68933 10.5355" stroke="#32CD32" stroke-width="3.55307" stroke-linecap="round" stroke-linejoin="round"/>
<path d="M5.47577 41.2097C5.47577 45.1418 8.64984 48.3158 12.5819 48.3158H14.9506C14.9506 45.7102 17.0825 43.5784 19.688 43.5784C22.2936 43.5784 24.4255 45.7102 24.4255 48.3158H33.9003C33.9003 45.7102 36.0321 43.5784 38.6377 43.5784C41.2433 43.5784 43.3751 45.7102 43.3751 48.3158H45.7439C49.6759 48.3158 52.85 45.1418 52.85 41.2097V34.1036H45.7439C44.4411 34.1036 43.3751 33.0376 43.3751 31.7348V24.6287C43.3751 23.3259 44.4411 22.26 45.7439 22.26H48.7994L44.749 15.1776C43.8963 13.709 42.333 12.7852 40.6275 12.7852H36.269V29.3661C36.269 31.9717 34.1372 34.1036 31.5316 34.1036H29.1629" stroke="#32CD32" stroke-width="3.55307" stroke-linecap="round" stroke-linejoin="round"/>
<path d="M19.6876 53.0491C22.304 53.0491 24.425 50.928 24.425 48.3116C24.425 45.6952 22.304 43.5742 19.6876 43.5742C17.0712 43.5742 14.9501 45.6952 14.9501 48.3116C14.9501 50.928 17.0712 53.0491 19.6876 53.0491Z" fill="#D9D9D9" stroke="#32CD32" stroke-width="3.55307" stroke-linecap="round" stroke-linejoin="round"/>
<path d="M38.6402 53.0491C41.2566 53.0491 43.3776 50.928 43.3776 48.3116C43.3776 45.6952 41.2566 43.5742 38.6402 43.5742C36.0238 43.5742 33.9028 45.6952 33.9028 48.3116C33.9028 50.928 36.0238 53.0491 38.6402 53.0491Z" stroke="#32CD32" stroke-width="3.55307" stroke-linecap="round" stroke-linejoin="round"/>
<path d="M52.8481 29.3679V34.1053H45.7419C44.4392 34.1053 43.3732 33.0394 43.3732 31.7366V24.6304C43.3732 23.3276 44.4392 22.2617 45.7419 22.2617H48.7975L52.8481 29.3679Z" stroke="#32CD32" stroke-width="3.55307" stroke-linecap="round" stroke-linejoin="round"/>
<path d="M5.47577 19.8945H19.688" stroke="#32CD32" stroke-width="3.55307" stroke-linecap="round" stroke-linejoin="round"/>
<path d="M5.47577 26.9961H14.9506" stroke="#32CD32" stroke-width="3.55307" stroke-linecap="round" stroke-linejoin="round"/>
<path d="M5.47577 34.1055H10.2132" stroke="#32CD32" stroke-width="3.55307" stroke-linecap="round" stroke-linejoin="round"/>
</svg>
