<svg width="58" height="58" viewBox="0 0 58 58" fill="none" xmlns="http://www.w3.org/2000/svg">
<path fill-rule="evenodd" clip-rule="evenodd" d="M9.2127 6.06558C8.97836 6.12751 8.74677 6.30538 8.60172 6.53493C8.39687 6.85924 8.37564 7.03227 8.42923 7.94082C8.4974 9.09885 8.90882 10.674 9.42145 11.7398C9.77273 12.4701 10.6383 13.8265 11.466 14.9437C13.4383 17.6054 13.5472 21.8978 11.7674 26.8234C11.4728 27.6388 10.6753 29.4742 9.99525 30.9021C7.67549 35.7731 6.84279 38.4142 6.54234 41.854C6.40945 43.3756 6.45834 44.4887 6.73158 46.1618C7.07162 48.2446 8.19294 51.9044 8.64315 52.4009C9.37463 53.2077 10.6803 52.7179 10.6803 51.6367C10.6803 51.4041 10.5248 50.7863 10.3347 50.2638C9.45749 47.8526 8.90905 44.9241 8.98066 43.0333L9.01623 42.0922L9.81955 42.4379C10.8168 42.8671 13.2311 43.7025 14.7542 44.1457C21.1392 46.0028 29.0463 46.4994 35.9275 45.4751C39.7797 44.9017 44.4924 43.6492 47.6815 42.3515C48.0554 42.1994 48.4297 42.0749 48.5135 42.0749C48.7071 42.0749 48.7211 43.741 48.5404 45.2408C48.3918 46.4739 47.7925 48.8878 47.2988 50.2419C46.8402 51.4999 46.836 51.9995 47.28 52.4449C47.5406 52.7064 47.7194 52.7814 48.0815 52.7814C48.794 52.7814 49.1382 52.3818 49.6184 50.997C51.484 45.6174 51.616 41.7977 50.1051 36.9042C49.5557 35.1244 49.0156 33.8144 47.6199 30.8761C46.9348 29.4339 46.1374 27.5985 45.848 26.7974C44.0722 21.883 44.1843 17.6084 46.1588 14.9437C46.9865 13.8265 47.852 12.4701 48.2033 11.7398C49.0154 10.0514 49.4722 7.40181 49.0818 6.64465C48.8562 6.20683 48.5408 6.01826 48.0343 6.01826C47.5626 6.01826 47.117 6.30618 46.9655 6.70889C46.9011 6.87984 46.8187 7.38858 46.7824 7.8394C46.6173 9.88353 45.8217 11.5687 44.3155 13.0638C43.2242 14.147 42.4644 14.6454 41.2625 15.0665C37.2335 16.4783 32.8521 14.6586 30.9773 10.7951C30.5282 9.86926 30.2581 8.79619 30.1232 7.39997C30.0845 7.00049 29.9709 6.6306 29.8325 6.45412C29.3659 5.85904 28.2589 5.85904 27.7923 6.45412C27.6539 6.6306 27.5403 7.00049 27.5016 7.39997C27.2978 9.50765 26.7061 11.1 25.6331 12.4279C23.8247 14.6656 20.8837 15.8582 18.1119 15.4776C14.1339 14.9315 11.1606 11.7945 10.8393 7.8044C10.7629 6.85486 10.6222 6.44951 10.2957 6.23849C9.92927 6.00168 9.63353 5.95448 9.2127 6.06558ZM29.3424 12.7964C29.8831 13.7293 31.3575 15.3212 32.3055 15.9956C33.6381 16.9435 35.0977 17.5425 36.8007 17.8404C38.44 18.1272 40.0135 18.0149 41.6464 17.4947L42.4924 17.2252L42.4281 17.5909C42.0456 19.7654 42.0937 21.7849 42.5851 24.1807C43.0671 26.5303 43.6659 28.164 45.4412 31.9717C47.1295 35.5935 47.8477 37.485 48.152 39.1122L48.2278 39.5171L47.041 39.9739C45.3551 40.623 43.6133 41.1891 43.5371 41.1127C43.5015 41.0769 43.5305 40.8155 43.6018 40.5317C43.8671 39.4744 43.709 38.8613 43.0955 38.5692C42.5711 38.3196 42.2622 38.3462 41.828 38.6783C41.5252 38.9101 41.4274 39.0939 41.3229 39.6281C41.1446 40.5388 40.7935 41.3979 40.4252 41.8238C40.1498 42.1425 39.9669 42.2122 38.7392 42.4662C33.091 43.635 26.4055 43.808 20.9116 42.9278C18.7931 42.5883 17.6397 42.3067 17.385 42.0668C17.0189 41.7216 16.5801 40.8382 16.4171 40.1178C16.1668 39.0116 16.1215 38.9143 15.7326 38.65C15.2832 38.3446 15.0361 38.328 14.5293 38.5692C13.8888 38.874 13.7495 39.5071 14.0628 40.688C14.1544 41.0334 14.2128 41.3325 14.1926 41.3528C14.1291 41.4165 11.1287 40.3374 10.2407 39.9314L9.39207 39.5435L9.47252 39.1112C9.74324 37.6555 10.6671 35.2287 12.1936 31.9631C14.3528 27.3444 15.0361 25.1856 15.3978 21.8399C15.5262 20.6517 15.4487 19.0073 15.1972 17.5909L15.1324 17.2252L15.9784 17.4947C17.6113 18.0149 19.1848 18.1272 20.824 17.8404C22.5271 17.5425 23.9867 16.9435 25.3193 15.9956C26.2672 15.3212 27.7417 13.7293 28.2824 12.7964C28.5274 12.3735 28.7659 12.0277 28.8124 12.0277C28.8589 12.0277 29.0973 12.3735 29.3424 12.7964ZM28.0436 34.486C27.5348 34.7387 27.091 35.4316 27.091 35.9734C27.091 36.8002 27.9882 37.7002 28.8124 37.7002C29.6366 37.7002 30.5338 36.8002 30.5338 35.9734C30.5338 35.4245 30.0883 34.7342 29.5726 34.4837C28.9576 34.1851 28.6487 34.1855 28.0436 34.486Z" fill="#32CD32"/>
</svg>
