<svg width="52" height="52" viewBox="0 0 52 52" fill="none" xmlns="http://www.w3.org/2000/svg">
<path fill-rule="evenodd" clip-rule="evenodd" d="M14.7829 1.05579C13.2996 1.4521 12.2074 2.5882 11.8125 4.14542L11.6381 4.83318L11.1894 4.71656C10.0021 4.40807 8.63256 4.67779 7.62513 5.41837C6.7248 6.08032 6.1168 7.13797 5.95612 8.32181L5.88845 8.82019H4.77164C3.7226 8.82019 3.61382 8.83952 2.98196 9.13845C1.72473 9.73321 0.831686 10.9403 0.603934 12.3526C0.346939 13.9466 1.17262 15.6732 2.61618 16.5603C3.01849 16.8075 3.11979 16.9305 3.20502 17.275C3.3693 17.9393 3.94617 19.0478 4.3859 19.5441C4.96017 20.1922 5.77767 20.7231 6.66422 21.0234L7.42762 21.2821L7.5936 21.8789C8.05619 23.5415 9.12519 24.8652 10.6241 25.6316C11.56 26.11 13.2617 26.3416 14.2163 26.1203L14.5978 26.0319L14.5157 26.4466C14.4705 26.6747 14.4374 27.3772 14.4422 28.0077C14.4496 28.982 14.4918 29.2734 14.7241 29.9503C15.3918 31.8973 16.7377 33.4014 18.7737 34.4754L19.6675 34.9468L18.0984 35.5782C12.9484 37.6506 8.19112 40.0719 5.40131 42.0406C4.00485 43.0261 2.51827 44.5335 2.10468 45.3834C0.667209 48.3374 3.25552 50.3205 9.79268 51.2741C16.1286 52.1984 28.9038 52.0966 32.8759 51.0903C35.5919 50.4023 37.9204 48.5467 39.1739 46.0715L39.4401 45.546L40.0595 46.0466C42.5498 48.0589 45.4079 47.9575 46.1271 45.8313L46.3063 45.3013L47.0709 45.2379C49.2335 45.0584 50.3647 43.3101 49.5332 41.4326L49.3362 40.9878L49.5593 40.8863C49.6821 40.8304 50.0573 40.5305 50.3933 40.2199C52.4928 38.2787 51.6494 35.7317 48.6912 35.0797L48.1174 34.9532V34.318C48.1174 33.6747 47.942 33.0941 47.6504 32.7723C47.5019 32.6085 47.5373 32.5045 48.1445 31.3233C49.2066 29.2573 49.8953 26.967 49.9423 25.3444C49.9633 24.6176 49.9574 24.5983 49.6252 24.301C49.331 24.0378 49.2331 24.0054 48.8769 24.0531C48.2506 24.137 48.0749 24.4125 47.9379 25.5255C47.7127 27.3549 47.1312 29.0839 46.1558 30.8235L45.611 31.7953L45.1924 31.7986C44.9623 31.8004 44.5282 31.8865 44.2279 31.9901L43.6818 32.1784L43.3438 31.784C42.2206 30.4735 40.2794 30.721 38.7183 32.3737C38.3398 32.7745 37.916 33.3641 37.6864 33.8097L37.2966 34.5659L36.7936 34.1393C35.6646 33.1819 34.3129 32.49 32.765 32.0776C31.9439 31.8587 29.8166 31.7714 28.9745 31.922L28.5448 31.9987L28.1524 31.1626C27.1789 29.0879 26.7216 27.0192 26.7168 24.6685C26.7105 21.6357 27.4512 19.609 29.151 18.0075C30.4867 16.7491 32.1047 16.1835 34.0949 16.2794C35.2718 16.3361 35.9395 16.5062 37.0395 17.0295C37.9961 17.4845 38.5503 17.5625 39.6028 17.3903C41.3377 17.1062 42.5657 17.2459 44.093 17.9011C45.1428 18.3514 45.4755 18.3597 45.8468 17.9449C46.4947 17.2211 46.0653 16.5283 44.6127 15.9539C43.3685 15.4619 42.0861 15.2271 40.8577 15.2664C39.8946 15.2972 39.8392 15.2883 39.8956 15.1113C40.0547 14.6116 40.7344 13.6488 41.4909 12.8516C42.2162 12.0874 42.3287 11.9215 42.3287 11.6171C42.3287 11.3699 42.2428 11.1693 42.0395 10.9422C41.4128 10.2416 40.6147 10.6281 39.3335 12.2525L38.7063 13.0477L38.4762 12.39C37.839 10.5685 36.1662 9.12818 34.2644 8.76337C33.4898 8.61476 32.3674 8.69091 31.6996 8.93731C30.9721 9.20563 30.8014 9.59088 30.8014 10.9632C30.8014 12.1957 30.9625 12.8097 31.5326 13.7511L31.9234 14.3961L31.1129 14.6291C29.1335 15.1979 27.4316 16.5116 26.2977 18.3462C25.939 18.9266 25.9221 18.9392 25.5715 18.8813C24.9314 18.7756 24.932 18.7765 25.1987 18.3154C26.6483 15.8086 25.7481 12.2788 23.2589 10.7094L22.867 10.4623L22.8658 9.59137C22.8645 8.6001 22.7244 7.98132 22.3086 7.13039C21.9662 6.42958 21.1118 5.4724 20.5192 5.12553C20.1376 4.90226 20.0914 4.83248 20.0329 4.39142C19.9973 4.12339 19.8101 3.58854 19.617 3.20299C18.73 1.43227 16.7182 0.538678 14.7829 1.05579ZM16.8906 3.16791C17.5878 3.53162 17.9282 4.0306 18.1201 4.96944C18.297 5.83492 18.5871 6.26452 19.284 6.69272C20.4187 7.39005 20.8709 8.30536 20.8709 9.90465C20.8709 11.2543 21.0473 11.617 22.0251 12.279C23.2835 13.1308 23.8864 14.19 23.8864 15.5483C23.8864 16.0707 23.822 16.4656 23.6726 16.8593C23.4406 17.4706 22.8785 18.2727 22.5644 18.4405C22.3774 18.5404 22.3679 18.5104 22.3656 17.8194C22.3624 16.8875 22.2392 16.3669 21.8114 15.4769C21.2137 14.2339 20.0827 13.1805 18.7797 12.6534L18.1318 12.3912L18.0106 11.8019C17.7398 10.485 17.3043 9.69115 16.3884 8.84421C16.0733 8.55286 15.5639 8.18296 15.2563 8.02209C14.8031 7.78516 14.6861 7.67153 14.6394 7.42324C14.6078 7.25479 14.4256 6.87463 14.2345 6.57839C13.7776 5.8702 13.6519 5.46203 13.7087 4.87196C13.7781 4.14981 14.214 3.51059 14.8707 3.16801C15.5851 2.79522 16.1762 2.79522 16.8906 3.16791ZM11.0402 6.76648C11.5754 7.01387 11.9035 7.38566 12.3306 8.22842C12.7277 9.01206 13.0157 9.27022 13.8336 9.57592C14.9665 9.99924 15.7716 10.8843 15.9804 11.9358C16.3259 13.6766 16.4727 13.8525 18.1937 14.59C18.9347 14.9075 19.5646 15.4989 19.9836 16.2707C20.3099 16.8716 20.322 16.9329 20.322 17.9903C20.322 19.0486 20.3102 19.1085 19.982 19.7128C19.7951 20.0572 19.6072 20.3263 19.5645 20.3108C19.5218 20.2955 18.3345 18.6457 16.9262 16.6447C15.5178 14.6437 14.235 12.873 14.0756 12.7098C13.2706 11.8862 11.9711 12.8867 12.5593 13.8771C12.6656 14.0561 13.9067 15.8364 15.3172 17.8333C17.1458 20.4222 17.8509 21.4948 17.7745 21.5711C17.7127 21.6328 17.2563 21.6783 16.6991 21.6783C15.8201 21.6783 15.6699 21.6494 15.0672 21.3642C14.2263 20.9663 13.6483 20.3901 13.261 19.5633C13.0106 19.029 12.9445 18.7336 12.8897 17.9036C12.7977 16.5085 12.5461 16.099 11.4091 15.4935C10.315 14.911 9.80535 14.0714 9.69058 12.6626C9.64796 12.1391 9.56572 11.5898 9.50773 11.4419C9.44985 11.2941 9.11341 10.8586 8.7601 10.4742C8.2558 9.92529 8.09192 9.66723 7.9972 9.27271C7.67204 7.91922 8.73805 6.58188 10.142 6.58188C10.4174 6.58188 10.8199 6.66461 11.0402 6.76648ZM34.7216 11.0111C35.8422 11.5134 36.6976 12.7064 36.7599 13.8538L36.7896 14.402L36.0411 14.3951C35.4315 14.3895 35.1946 14.338 34.765 14.1175C33.6059 13.5227 32.8655 12.4715 32.7701 11.2852L32.7179 10.6353L33.4109 10.6848C33.8673 10.7174 34.3147 10.8288 34.7216 11.0111ZM5.57916 10.9186C6.1179 11.1433 7.6965 12.7989 7.69799 13.1409C7.69979 13.5478 7.95569 14.4169 8.2515 15.0207C8.61569 15.7642 9.55714 16.744 10.2736 17.1254L10.8607 17.4379L10.9198 18.3122C11.0739 20.5955 12.4 22.4484 14.483 23.2904C14.8661 23.4453 15.1802 23.6002 15.1809 23.6346C15.1815 23.669 14.9463 23.8017 14.6581 23.9293C14.2323 24.1181 13.9564 24.1625 13.186 24.166C12.3626 24.1696 12.1633 24.1353 11.6715 23.905C10.5501 23.3799 9.81463 22.4776 9.49416 21.2333C9.17299 19.9862 8.80841 19.5958 7.6414 19.2492C6.17139 18.8125 5.42017 18.0234 5.0995 16.579C4.95079 15.909 4.5914 15.4076 4.0312 15.089C2.79104 14.3833 2.31677 13.4414 2.64822 12.3421C2.84333 11.6952 3.1139 11.3569 3.70464 11.0214C4.2351 10.7201 5.00229 10.678 5.57916 10.9186ZM25.105 20.84C25.1324 20.8674 25.0585 21.3364 24.9405 21.8821C24.6524 23.2163 24.6343 25.8685 24.9029 27.4096C25.1299 28.713 25.6305 30.3879 26.1514 31.5872C26.4204 32.2066 26.5105 32.5158 26.4298 32.5418C26.364 32.5629 25.7264 32.7699 25.0128 33.002C23.8045 33.3947 23.6399 33.4236 22.6175 33.4219C21.6873 33.4204 21.3977 33.3786 20.7212 33.1486C19.5539 32.7516 18.9232 32.3561 18.0182 31.4535C16.3135 29.7534 15.9163 27.7128 16.8891 25.6512C17.3251 24.7273 17.9211 24.1465 19.804 22.8109C21.7434 21.4352 22.4282 21.048 23.2456 20.8652C23.7794 20.7459 24.9942 20.7295 25.105 20.84ZM41.7725 33.0482C41.9296 33.2051 41.9669 33.3227 42.0772 34.0088C42.2095 34.8319 43.0405 35.0262 43.876 34.4293C44.1502 34.2334 44.5261 34.0091 44.7113 33.9309C45.1214 33.7577 45.8381 33.7453 46.0015 33.9084C46.1687 34.0754 46.1511 34.9201 45.9716 35.3491C45.7518 35.8743 45.7823 36.3233 46.0595 36.6451C46.2846 36.9064 46.3543 36.9241 47.3819 36.9799C49.5209 37.0959 50.1678 37.8366 48.9942 38.8259C48.6622 39.1059 47.5656 39.6694 47.3528 39.6695C47.289 39.6696 47.1206 39.8077 46.9785 39.9763C46.5898 40.4377 46.6305 40.8499 47.1207 41.4156C47.8756 42.2867 47.9851 42.7127 47.5435 43.0616C47.2941 43.2586 47.1917 43.273 46.4207 43.2187C45.9541 43.1858 45.3869 43.1321 45.1602 43.0994C44.8017 43.0476 44.7059 43.0776 44.4232 43.3298C44.07 43.645 44.0461 43.7857 44.1769 44.7753C44.2516 45.3394 44.2492 45.3469 43.9642 45.4574C43.6153 45.5926 42.9165 45.4577 42.2388 45.1241C41.7169 44.8672 40.5844 43.8471 40.3775 43.4475C40.2765 43.2524 40.2256 42.692 40.2004 41.4964C40.1694 40.0169 40.1331 39.7134 39.893 38.9221C39.7434 38.4287 39.4534 37.6886 39.2487 37.2774C38.9174 36.6122 38.885 36.4811 38.954 36.0869C39.0678 35.4357 39.6581 34.2651 40.1307 33.7529C40.5132 33.3387 41.2224 32.892 41.4983 32.8918C41.5629 32.8917 41.6864 32.9621 41.7725 33.0482ZM32.5453 34.0898C37.8718 35.5924 39.9746 41.9228 36.6269 46.3776C36.1926 46.9557 34.9648 48.0971 34.8744 48.0069C34.8582 47.9906 34.7333 47.3852 34.5966 46.6614C34.4601 45.9376 34.3022 45.2592 34.2458 45.154C33.9433 44.5894 33.1992 44.486 32.7399 44.9448C32.3693 45.3148 32.3672 45.5472 32.7172 47.4617C32.8652 48.2712 32.9644 48.9555 32.9376 48.9822C32.5926 49.3268 28.1991 49.7814 24.4681 49.8585L23.1251 49.8863L22.8478 48.3912C22.5216 46.6315 22.4752 46.5081 22.0608 46.2941C21.5061 46.0076 20.8134 46.3026 20.632 46.9028C20.5976 47.0161 20.6824 47.7061 20.8201 48.4362C20.9578 49.1662 21.0705 49.8023 21.0705 49.8499C21.0705 50.0308 16.1291 49.8982 13.0363 49.6343C8.44932 49.2428 5.12844 48.4122 4.03479 47.3827C3.65035 47.0209 3.62629 46.7922 3.91353 46.2301C4.4879 45.1055 6.45304 43.5627 9.53967 41.8126C10.1828 41.4478 10.72 41.1642 10.7333 41.1821C10.7468 41.2 10.8357 41.6631 10.9311 42.2114C11.2302 43.9317 11.2998 44.1739 11.5654 44.4197C12.1422 44.9535 13.187 44.5144 13.1852 43.7391C13.1848 43.5567 13.0513 42.6924 12.8885 41.8183C12.7257 40.9443 12.6054 40.2163 12.6213 40.2004C12.6371 40.1846 13.2564 39.8839 13.9973 39.5323C17.7893 37.7329 24.4206 35.1325 24.5114 35.4096C24.5337 35.4775 24.6459 36.0489 24.7607 36.6794C25.0178 38.0909 25.1152 38.3443 25.471 38.5281C26.071 38.838 26.7598 38.5544 26.9159 37.9333C26.9521 37.7899 26.8651 37.0651 26.7204 36.3016C26.5771 35.5461 26.4599 34.8572 26.4599 34.7707C26.4599 34.6073 27.626 34.2281 29.0335 33.9338C29.942 33.7439 31.5763 33.8164 32.5453 34.0898Z" fill="#32CD32"/>
</svg>
