<svg width="18" height="18" viewBox="0 0 18 18" fill="none" xmlns="http://www.w3.org/2000/svg">
<g id="icon">
<path id="Vector" d="M1.93871 5.73723C2.13819 5.53781 2.40871 5.42578 2.69078 5.42578C2.97285 5.42578 3.24337 5.53781 3.44285 5.73723L8.70842 11.0028L13.974 5.73723C14.1746 5.54346 14.4433 5.43624 14.7222 5.43867C15.0011 5.44109 15.2679 5.55296 15.4652 5.75019C15.6624 5.94742 15.7743 6.21422 15.7767 6.49313C15.7791 6.77204 15.6719 7.04075 15.4781 7.24138L9.46049 13.259C9.26101 13.4584 8.99049 13.5705 8.70842 13.5705C8.42635 13.5705 8.15583 13.4584 7.95635 13.259L1.93871 7.24138C1.73929 7.04189 1.62726 6.77137 1.62726 6.4893C1.62726 6.20724 1.73929 5.93672 1.93871 5.73723Z" fill="#32CD32"/>
</g>
</svg>
