<svg width="15" height="16" viewBox="0 0 15 16" fill="none" xmlns="http://www.w3.org/2000/svg">
<path d="M5.5838 5.67763L5.58259 5.67823L5.58079 5.67944L5.5838 5.67763ZM11.5799 5.56498C11.538 5.52455 11.4915 5.48917 11.4414 5.45957C11.3704 5.41777 11.2916 5.39098 11.2099 5.38085C11.1281 5.37072 11.0451 5.37747 10.9661 5.40067C10.8871 5.42388 10.8136 5.46305 10.7503 5.51576C10.687 5.56848 10.6352 5.63361 10.5981 5.70715C10.3906 6.11612 10.1044 6.4801 9.75592 6.77819C9.80935 6.47793 9.83636 6.17356 9.83664 5.86859C9.83779 4.94099 9.59312 4.02966 9.12753 3.22738C8.66195 2.4251 7.99209 1.76051 7.18614 1.3013C7.09733 1.25083 6.99714 1.22378 6.895 1.22269C6.79286 1.2216 6.69212 1.2465 6.60225 1.29505C6.51237 1.3436 6.43632 1.4142 6.38124 1.50023C6.32616 1.58626 6.29387 1.68488 6.28738 1.78682C6.25366 2.35794 6.10434 2.91627 5.84849 3.42799C5.59263 3.93971 5.23555 4.39416 4.79889 4.76381L4.66034 4.87646C4.2035 5.18382 3.79914 5.56275 3.4628 5.9987C2.94009 6.65718 2.57801 7.42839 2.40526 8.25117C2.23251 9.07395 2.25385 9.92567 2.46759 10.7388C2.68133 11.5519 3.08159 12.304 3.63661 12.9354C4.19164 13.5669 4.88617 14.0604 5.66512 14.3767C5.75657 14.4139 5.85578 14.4281 5.95399 14.418C6.05221 14.4078 6.14644 14.3737 6.22837 14.3186C6.31031 14.2635 6.37744 14.1891 6.42387 14.102C6.47029 14.0148 6.49458 13.9176 6.49461 13.8189C6.4941 13.7551 6.48395 13.6917 6.46449 13.6309C6.32971 13.1244 6.29089 12.597 6.35003 12.0762C6.92017 13.1512 7.83524 14.0032 8.94812 14.4954C9.0839 14.5561 9.23738 14.5642 9.37883 14.5182C10.258 14.2344 11.05 13.7305 11.6796 13.0545C12.3092 12.3784 12.7554 11.5525 12.976 10.6554C13.1966 9.75827 13.1841 8.81965 12.9397 7.9287C12.6954 7.03776 12.2273 6.22409 11.5799 5.56498ZM9.22763 13.2942C8.70252 13.0281 8.23929 12.6545 7.86806 12.1977C7.49683 11.7408 7.2259 11.2109 7.0729 10.6425C7.02612 10.4511 6.98992 10.2572 6.96447 10.0618C6.94733 9.93736 6.89171 9.8214 6.80541 9.73013C6.71911 9.63886 6.60644 9.57685 6.48316 9.55278C6.44525 9.54542 6.40672 9.54179 6.3681 9.54194C6.26226 9.54183 6.15826 9.56962 6.06658 9.62249C5.97489 9.67537 5.89876 9.75147 5.84584 9.84313C5.34612 10.7053 5.09489 11.689 5.11996 12.6852C4.68031 12.3435 4.31287 11.9179 4.03893 11.4331C3.76499 10.9483 3.59 10.4139 3.5241 9.86098C3.45821 9.30806 3.50272 8.74755 3.65506 8.21195C3.8074 7.67636 4.06453 7.17632 4.41156 6.74084C4.67505 6.39859 4.99291 6.10189 5.35248 5.86256C5.36822 5.85247 5.38331 5.8414 5.39766 5.82943C5.39766 5.82943 5.57597 5.68185 5.58199 5.67883C6.44051 4.95299 7.05119 3.97738 7.32891 2.88798C7.98517 3.4948 8.4227 4.30133 8.57356 5.18233C8.72442 6.06332 8.58017 6.96947 8.16321 7.76008C8.10803 7.8656 8.08537 7.98511 8.09808 8.10352C8.11079 8.22192 8.15831 8.33389 8.23463 8.4253C8.31095 8.51671 8.41266 8.58344 8.52689 8.61708C8.64112 8.65071 8.76276 8.64973 8.87644 8.61426C9.79913 8.32489 10.611 7.7598 11.2029 6.99505C11.5587 7.52047 11.7913 8.11942 11.8835 8.74727C11.9756 9.37512 11.9248 10.0157 11.735 10.6212C11.5451 11.2267 11.221 11.7815 10.7869 12.2443C10.3528 12.7072 9.81976 13.066 9.22763 13.2942Z" fill="url(#paint0_linear_2384_687)"/>
<defs>
<linearGradient id="paint0_linear_2384_687" x1="7.546" y1="0.0010154" x2="14.4183" y2="10.4863" gradientUnits="userSpaceOnUse">
<stop stop-color="#5AFF15"/>
<stop offset="0.594922" stop-color="#2BD913"/>
<stop offset="1" stop-color="#32CD32"/>
</linearGradient>
</defs>
</svg>
