<svg width="15" height="15" viewBox="0 0 15 15" fill="none" xmlns="http://www.w3.org/2000/svg">
<g id="icon">
<path id="Vector" d="M4.98494 1.52449C4.80918 1.70029 4.71045 1.93871 4.71045 2.1873C4.71045 2.43589 4.80918 2.67431 4.98494 2.85011L9.62556 7.49074L4.98494 12.1314C4.81416 12.3082 4.71967 12.545 4.7218 12.7908C4.72394 13.0366 4.82254 13.2717 4.99636 13.4456C5.17018 13.6194 5.40531 13.718 5.65112 13.7201C5.89693 13.7223 6.13375 13.6278 6.31056 13.457L11.614 8.15355C11.7898 7.97774 11.8885 7.73933 11.8885 7.49074C11.8885 7.24215 11.7898 7.00373 11.614 6.82793L6.31056 1.52449C6.13475 1.34873 5.89634 1.25 5.64775 1.25C5.39916 1.25 5.16074 1.34873 4.98494 1.52449V1.52449Z" fill="#32CD32"/>
</g>
</svg>
