<svg width="17" height="17" viewBox="0 0 17 17" fill="none" xmlns="http://www.w3.org/2000/svg">
<g id="icon">
<path id="Vector" d="M10.3098 10.8943L11.4456 9.75843C11.5986 9.60734 11.7922 9.50392 12.0028 9.46071C12.2134 9.4175 12.4321 9.43638 12.6322 9.51503L14.0165 10.0677C14.2187 10.1498 14.3921 10.2899 14.5149 10.4704C14.6376 10.6509 14.7041 10.8637 14.7061 11.0819V13.6173C14.705 13.7658 14.6738 13.9125 14.6144 14.0485C14.555 14.1846 14.4687 14.3073 14.3607 14.4091C14.2527 14.511 14.1252 14.5899 13.9859 14.6412C13.8465 14.6925 13.6983 14.7151 13.55 14.7075C3.84957 14.1041 1.89224 5.88941 1.52207 2.74552C1.50489 2.59113 1.52059 2.43486 1.56814 2.28697C1.61569 2.13909 1.69401 2.00295 1.79796 1.88751C1.9019 1.77207 2.02911 1.67995 2.17121 1.6172C2.31332 1.55445 2.4671 1.5225 2.62244 1.52346H5.07163C5.29019 1.52411 5.50355 1.59012 5.68428 1.71302C5.86501 1.83592 6.00484 2.01007 6.08579 2.21309L6.63851 3.59741C6.71977 3.79673 6.7405 4.01557 6.69811 4.2266C6.65573 4.43763 6.5521 4.6315 6.40018 4.78398L5.26432 5.91984C5.26432 5.91984 5.91845 10.3466 10.3098 10.8943Z" fill="#32CD32"/>
</g>
</svg>
