<svg width="17" height="17" viewBox="0 0 17 17" fill="none" xmlns="http://www.w3.org/2000/svg">
<g id="icon">
<path id="Vector" d="M12.6703 6.73803C12.6703 5.52766 12.1895 4.36686 11.3337 3.511C10.4778 2.65513 9.317 2.17432 8.10662 2.17432C6.89625 2.17432 5.73545 2.65513 4.87959 3.511C4.02373 4.36686 3.54291 5.52766 3.54291 6.73803C3.54291 8.61017 5.04082 11.0502 8.10662 13.973C11.1724 11.0502 12.6703 8.61017 12.6703 6.73803ZM8.10662 15.3584C4.3877 11.9782 2.52875 9.10406 2.52875 6.73803C2.52875 5.25869 3.11642 3.83993 4.16247 2.79388C5.20852 1.74782 6.62728 1.16016 8.10662 1.16016C9.58597 1.16016 11.0047 1.74782 12.0508 2.79388C13.0968 3.83993 13.6845 5.25869 13.6845 6.73803C13.6845 9.10406 11.8255 11.9782 8.10662 15.3584Z" fill="#32CD32"/>
<path id="Vector_2" d="M8.10724 8.25976C8.51069 8.25976 8.89763 8.09949 9.18291 7.8142C9.4682 7.52891 9.62847 7.14198 9.62847 6.73852C9.62847 6.33506 9.4682 5.94813 9.18291 5.66284C8.89763 5.37756 8.51069 5.21728 8.10724 5.21728C7.70378 5.21728 7.31685 5.37756 7.03156 5.66284C6.74627 5.94813 6.586 6.33506 6.586 6.73852C6.586 7.14198 6.74627 7.52891 7.03156 7.8142C7.31685 8.09949 7.70378 8.25976 8.10724 8.25976V8.25976ZM8.10724 9.27392C7.43481 9.27392 6.78992 9.0068 6.31444 8.53132C5.83896 8.05584 5.57184 7.41095 5.57184 6.73852C5.57184 6.06609 5.83896 5.4212 6.31444 4.94573C6.78992 4.47025 7.43481 4.20312 8.10724 4.20312C8.77967 4.20313 9.42455 4.47025 9.90003 4.94573C10.3755 5.4212 10.6426 6.06609 10.6426 6.73852C10.6426 7.41095 10.3755 8.05584 9.90003 8.53132C9.42455 9.0068 8.77967 9.27392 8.10724 9.27392Z" fill="#32CD32"/>
</g>
</svg>
