<svg width="27" height="26" viewBox="0 0 27 26" fill="none" xmlns="http://www.w3.org/2000/svg">
<path d="M9.35868 2.62949C9.05816 2.9301 8.88934 3.33776 8.88934 3.76282C8.88934 4.18788 9.05816 4.59553 9.35868 4.89614L17.2935 12.831L9.35868 20.7659C9.06668 21.0682 8.90511 21.4731 8.90876 21.8934C8.91241 22.3137 9.081 22.7158 9.37821 23.013C9.67542 23.3102 10.0775 23.4788 10.4978 23.4824C10.9181 23.4861 11.323 23.3245 11.6253 23.0325L20.6935 13.9643C20.994 13.6637 21.1629 13.2561 21.1629 12.831C21.1629 12.4059 20.994 11.9983 20.6935 11.6977L11.6253 2.62949C11.3247 2.32898 10.9171 2.16016 10.492 2.16016C10.0669 2.16016 9.65929 2.32898 9.35868 2.62949Z" fill="#32CD32"/>
</svg>
