<svg width="16" height="16" viewBox="0 0 16 16" fill="none" xmlns="http://www.w3.org/2000/svg">
<g id="ep:arrow-right-bold">
<path id="Vector" d="M5.72896 2.30522C5.55353 2.4807 5.45499 2.71867 5.45499 2.96679C5.45499 3.21492 5.55353 3.45289 5.72896 3.62836L10.3609 8.26029L5.72896 12.8922C5.55851 13.0687 5.46419 13.3051 5.46632 13.5504C5.46845 13.7958 5.56686 14.0305 5.74036 14.204C5.91385 14.3775 6.14855 14.4759 6.3939 14.478C6.63925 14.4801 6.87562 14.3858 7.0521 14.2154L12.3456 8.92186C12.521 8.74638 12.6196 8.50841 12.6196 8.26029C12.6196 8.01216 12.521 7.7742 12.3456 7.59872L7.0521 2.30522C6.87662 2.1298 6.63865 2.03125 6.39053 2.03125C6.1424 2.03125 5.90444 2.1298 5.72896 2.30522V2.30522Z" fill="#32CD32"/>
</g>
</svg>
