<svg width="21" height="20" viewBox="0 0 21 20" fill="none" xmlns="http://www.w3.org/2000/svg">
<path d="M14.0219 10.4861C14.9599 9.74815 15.6445 8.73619 15.9805 7.59102C16.3166 6.44584 16.2873 5.2244 15.8969 4.09662C15.5064 2.96884 14.7741 1.99081 13.8019 1.29858C12.8297 0.606362 11.6659 0.234375 10.4725 0.234375C9.27901 0.234375 8.11522 0.606362 7.14301 1.29858C6.17081 1.99081 5.43853 2.96884 5.04806 4.09662C4.6576 5.2244 4.62835 6.44584 4.9644 7.59102C5.30045 8.73619 5.98507 9.74815 6.92303 10.4861C5.31582 11.13 3.91347 12.198 2.86548 13.5762C1.81749 14.9545 1.16316 16.5912 0.972232 18.3121C0.958412 18.4377 0.969473 18.5649 1.00478 18.6862C1.0401 18.8076 1.09897 18.9208 1.17803 19.0194C1.33772 19.2186 1.56998 19.3461 1.82371 19.374C2.07745 19.402 2.33188 19.3279 2.53104 19.1682C2.7302 19.0086 2.85776 18.7763 2.88567 18.5226C3.09575 16.6524 3.98752 14.9251 5.39058 13.6708C6.79364 12.4166 8.60964 11.7232 10.4916 11.7232C12.3736 11.7232 14.1896 12.4166 15.5926 13.6708C16.9957 14.9251 17.8874 16.6524 18.0975 18.5226C18.1235 18.7576 18.2357 18.9748 18.4124 19.132C18.5891 19.2893 18.8177 19.3755 19.0542 19.374H19.1595C19.4103 19.3452 19.6395 19.2184 19.7972 19.0213C19.9549 18.8241 20.0283 18.5727 20.0014 18.3216C19.8096 16.5959 19.1517 14.9549 18.0983 13.5746C17.045 12.1943 15.6358 11.1266 14.0219 10.4861ZM10.4725 9.80684C9.71558 9.80684 8.97569 9.5824 8.34637 9.16189C7.71704 8.74139 7.22654 8.14371 6.93689 7.44444C6.64724 6.74517 6.57146 5.97571 6.71912 5.23337C6.86678 4.49103 7.23125 3.80914 7.76645 3.27394C8.30165 2.73874 8.98354 2.37427 9.72588 2.22661C10.4682 2.07895 11.2377 2.15473 11.937 2.44438C12.6362 2.73403 13.2339 3.22453 13.6544 3.85385C14.0749 4.48318 14.2993 5.22307 14.2993 5.97996C14.2993 6.99491 13.8962 7.96829 13.1785 8.68597C12.4608 9.40365 11.4874 9.80684 10.4725 9.80684Z" fill="#32CD32"/>
</svg>
