<svg width="18" height="17" viewBox="0 0 18 17" fill="none" xmlns="http://www.w3.org/2000/svg">
<path d="M11.9269 11.6893L13.3423 10.2738C13.533 10.0856 13.7742 9.95667 14.0367 9.90283C14.2991 9.84898 14.5716 9.8725 14.821 9.97052L16.5461 10.6593C16.7981 10.7616 17.0142 10.9362 17.1671 11.1611C17.32 11.386 17.403 11.6511 17.4055 11.9231V15.0826C17.404 15.2676 17.3651 15.4504 17.2911 15.62C17.2171 15.7896 17.1096 15.9424 16.975 16.0694C16.8404 16.1963 16.6815 16.2947 16.5079 16.3586C16.3343 16.4225 16.1495 16.4506 15.9647 16.4412C3.87643 15.6892 1.43729 5.45242 0.976006 1.53463C0.954592 1.34224 0.974157 1.14749 1.03341 0.963206C1.09267 0.778919 1.19027 0.609266 1.3198 0.46541C1.44933 0.321553 1.60786 0.206753 1.78494 0.12856C1.96202 0.0503682 2.15366 0.0105566 2.34723 0.0117446H5.39932C5.67167 0.0125507 5.93756 0.0948191 6.16278 0.247968C6.388 0.401117 6.56225 0.618143 6.66312 0.871131L7.35189 2.59622C7.45316 2.8446 7.47899 3.11732 7.42617 3.3803C7.37335 3.64327 7.24422 3.88486 7.0549 4.07487L5.63944 5.49033C5.63944 5.49033 6.45459 11.0068 11.9269 11.6893Z" fill="#32CD32"/>
</svg>
