<svg width="17" height="17" viewBox="0 0 17 17" fill="none" xmlns="http://www.w3.org/2000/svg">
<path d="M13.852 13.1234L11.585 10.8631C12.3165 9.93123 12.7133 8.78051 12.7119 7.59589C12.7119 6.54089 12.399 5.50958 11.8129 4.63238C11.2268 3.75519 10.3937 3.07149 9.41899 2.66776C8.4443 2.26403 7.37177 2.1584 6.33705 2.36422C5.30232 2.57004 4.35186 3.07807 3.60586 3.82406C2.85987 4.57006 2.35184 5.52052 2.14602 6.55525C1.94019 7.58997 2.04583 8.6625 2.44956 9.63719C2.85329 10.6119 3.53698 11.445 4.41418 12.0311C5.29138 12.6172 6.32269 12.9301 7.37769 12.9301C8.56231 12.9315 9.71303 12.5347 10.6449 11.8032L12.9052 14.0702C12.9672 14.1327 13.041 14.1823 13.1222 14.2162C13.2035 14.25 13.2906 14.2675 13.3786 14.2675C13.4667 14.2675 13.5538 14.25 13.6351 14.2162C13.7163 14.1823 13.7901 14.1327 13.852 14.0702C13.9145 14.0083 13.9641 13.9345 13.998 13.8533C14.0318 13.772 14.0493 13.6849 14.0493 13.5968C14.0493 13.5088 14.0318 13.4217 13.998 13.3404C13.9641 13.2592 13.9145 13.1854 13.852 13.1234ZM3.37706 7.59589C3.37706 6.80464 3.6117 6.03116 4.05129 5.37326C4.49088 4.71536 5.1157 4.20259 5.84672 3.89979C6.57774 3.59699 7.38213 3.51777 8.15817 3.67213C8.93422 3.8265 9.64706 4.20752 10.2066 4.76702C10.7661 5.32652 11.1471 6.03936 11.3014 6.81541C11.4558 7.59145 11.3766 8.39585 11.0738 9.12686C10.771 9.85788 10.2582 10.4827 9.60032 10.9223C8.94242 11.3619 8.16894 11.5965 7.37769 11.5965C6.31666 11.5965 5.29908 11.175 4.54882 10.4248C3.79856 9.6745 3.37706 8.65692 3.37706 7.59589Z" fill="#D2D2D2"/>
</svg>
