<svg width="46" height="46" viewBox="0 0 46 46" fill="none" xmlns="http://www.w3.org/2000/svg">
<g id="icon" clip-path="url(#clip0_2384_993)">
<path id="Vector" fill-rule="evenodd" clip-rule="evenodd" d="M45.4258 22.5547C45.4258 34.9803 35.3514 45.0547 22.9258 45.0547C10.5002 45.0547 0.425781 34.9803 0.425781 22.5547C0.425781 10.1291 10.5002 0.0546875 22.9258 0.0546875C35.3514 0.0546875 45.4258 10.1291 45.4258 22.5547ZM23.732 16.6653C21.5439 17.5747 17.1695 19.4591 10.6108 22.3166C9.54578 22.7403 8.98703 23.1547 8.93641 23.5597C8.85016 24.2459 9.70891 24.5159 10.8752 24.8816C11.0345 24.9322 11.1995 24.9828 11.3683 25.0391C12.5177 25.4122 14.0627 25.8491 14.8652 25.8659C15.5945 25.8809 16.4083 25.5809 17.3064 24.9659C23.4339 20.8278 26.597 18.7372 26.7958 18.6922C26.9364 18.6603 27.1314 18.6191 27.2627 18.7372C27.3939 18.8534 27.3808 19.0747 27.3677 19.1347C27.2814 19.4966 23.9177 22.6259 22.1739 24.2459C21.6302 24.7503 21.2458 25.1084 21.167 25.1909C20.9908 25.3728 20.8108 25.5472 20.6383 25.7141C19.5695 26.7416 18.7708 27.5141 20.6833 28.7741C21.602 29.3797 22.337 29.8803 23.0702 30.3791C23.8708 30.9247 24.6695 31.4684 25.7045 32.1472C25.967 32.3197 26.2183 32.4978 26.4639 32.6722C27.3958 33.3378 28.2339 33.9341 29.2689 33.8403C29.8689 33.7841 30.4914 33.2197 30.8064 31.5341C31.5508 27.5478 33.017 18.9153 33.3564 15.3566C33.3771 15.0611 33.3645 14.7642 33.3189 14.4716C33.2916 14.2352 33.1765 14.0177 32.9964 13.8622C32.7283 13.6428 32.312 13.5959 32.1245 13.5997C31.2789 13.6147 29.9814 14.0666 23.732 16.6653Z" fill="white"/>
</g>
<defs>
<clipPath id="clip0_2384_993">
<rect width="45" height="45" fill="white" transform="translate(0.428223 0.0625)"/>
</clipPath>
</defs>
</svg>
