<svg width="128" height="128" viewBox="0 0 128 128" fill="none" xmlns="http://www.w3.org/2000/svg">
<g id="vuesax/linear/truck-tick">
<g id="vuesax/linear/truck-tick_2">
<g id="truck-tick">
<path id="Vector" d="M79.9162 10.668V63.5846C79.9162 69.4055 75.1537 74.168 69.3329 74.168H11.1246V40.4071C14.9875 45.0109 20.9143 47.8684 27.476 47.7096C32.8205 47.6038 37.6358 45.5401 41.2342 42.1005C42.8746 40.7246 44.2505 38.9783 45.3089 37.0733C47.2139 33.8454 48.2721 30.0353 48.1662 26.0666C48.0075 19.8753 45.2559 14.4251 40.9696 10.668H79.9162Z" stroke="#32CD32" stroke-width="7.9375" stroke-linecap="round" stroke-linejoin="round"/>
<path id="Vector_2" d="M116.958 74.168V90.043C116.958 98.8271 109.867 105.918 101.083 105.918H95.7912C95.7912 100.097 91.0287 95.3346 85.2079 95.3346C79.3871 95.3346 74.6246 100.097 74.6246 105.918H53.4579C53.4579 100.097 48.6954 95.3346 42.8746 95.3346C37.0537 95.3346 32.2912 100.097 32.2912 105.918H26.9996C18.2154 105.918 11.1246 98.8271 11.1246 90.043V74.168H69.3329C75.1537 74.168 79.9162 69.4055 79.9162 63.5846V26.543H89.6531C93.4631 26.543 96.9555 28.6068 98.8605 31.8876L107.909 47.7096H101.083C98.1725 47.7096 95.7912 50.0909 95.7912 53.0013V68.8763C95.7912 71.7867 98.1725 74.168 101.083 74.168H116.958Z" stroke="#32CD32" stroke-width="7.9375" stroke-linecap="round" stroke-linejoin="round"/>
<path id="Vector_3" d="M42.8746 116.503C48.7196 116.503 53.4579 111.764 53.4579 105.919C53.4579 100.074 48.7196 95.3359 42.8746 95.3359C37.0296 95.3359 32.2913 100.074 32.2913 105.919C32.2913 111.764 37.0296 116.503 42.8746 116.503Z" stroke="#32CD32" stroke-width="7.9375" stroke-linecap="round" stroke-linejoin="round"/>
<path id="Vector_4" d="M85.2079 116.503C91.0529 116.503 95.7912 111.764 95.7912 105.919C95.7912 100.074 91.0529 95.3359 85.2079 95.3359C79.3629 95.3359 74.6246 100.074 74.6246 105.919C74.6246 111.764 79.3629 116.503 85.2079 116.503Z" stroke="#32CD32" stroke-width="7.9375" stroke-linecap="round" stroke-linejoin="round"/>
<path id="Vector_5" d="M116.958 63.5859V74.1693H101.083C98.1725 74.1693 95.7913 71.788 95.7913 68.8776V53.0026C95.7913 50.0922 98.1725 47.7109 101.083 47.7109H107.909L116.958 63.5859Z" stroke="#32CD32" stroke-width="7.9375" stroke-linecap="round" stroke-linejoin="round"/>
<g id="Group">
<path id="Vector_6" d="M48.1696 26.0693C48.2754 30.038 47.2172 33.8481 45.3122 37.076C44.2539 38.981 42.878 40.7273 41.2375 42.1032C37.6392 45.5427 32.8239 47.6065 27.4793 47.7123C20.9177 47.8711 14.9909 45.0135 11.1279 40.4098C10.3871 39.616 9.75214 38.7165 9.17005 37.8169C7.1063 34.6948 5.94211 30.9908 5.83628 27.022C5.67753 20.3545 8.64082 14.2689 13.4033 10.3002C17.0017 7.33686 21.5524 5.48481 26.5266 5.37898C32.0828 5.27315 37.163 7.28398 40.973 10.6706C45.2593 14.4277 48.0109 19.878 48.1696 26.0693Z" stroke="#32CD32" stroke-width="7.9375" stroke-miterlimit="10" stroke-linecap="round" stroke-linejoin="round"/>
<path id="Vector_7" d="M18.7437 26.6954L24.0883 31.7752L35.1477 21.0859" stroke="#32CD32" stroke-width="7.9375" stroke-linecap="round" stroke-linejoin="round"/>
</g>
</g>
</g>
</g>
</svg>
