<svg width="57" height="57" viewBox="0 0 57 57" fill="none" xmlns="http://www.w3.org/2000/svg">
<g id="icon">
<g id="vuesax/linear/truck-time">
<g id="truck-time">
<path id="Vector" d="M35.5206 4.73047V28.0638C35.5206 30.6305 33.4206 32.7305 30.8539 32.7305H5.18726V17.8438C6.89059 19.8738 9.50399 21.1338 12.3973 21.0638C14.754 21.0171 16.8773 20.1071 18.4639 18.5905C19.1873 17.9838 19.794 17.2138 20.2606 16.3738C21.1006 14.9504 21.5673 13.2704 21.5206 11.5204C21.4506 8.79041 20.2373 6.38714 18.3473 4.73047H35.5206Z" stroke="#32CD32" stroke-width="3.5" stroke-linecap="round" stroke-linejoin="round"/>
<path id="Vector_2" d="M51.8539 32.7305V39.7305C51.8539 43.6038 48.7273 46.7305 44.8539 46.7305H42.5206C42.5206 44.1638 40.4206 42.0638 37.8539 42.0638C35.2873 42.0638 33.1873 44.1638 33.1873 46.7305H23.8539C23.8539 44.1638 21.7539 42.0638 19.1873 42.0638C16.6206 42.0638 14.5206 44.1638 14.5206 46.7305H12.1873C8.31392 46.7305 5.18726 43.6038 5.18726 39.7305V32.7305H30.8539C33.4206 32.7305 35.5206 30.6305 35.5206 28.0638V11.7305H39.814C41.494 11.7305 43.034 12.6405 43.874 14.0872L47.8639 21.0638H44.8539C43.5706 21.0638 42.5206 22.1138 42.5206 23.3971V30.3971C42.5206 31.6805 43.5706 32.7305 44.8539 32.7305H51.8539Z" stroke="#32CD32" stroke-width="3.5" stroke-linecap="round" stroke-linejoin="round"/>
<path id="Vector_3" d="M19.188 51.3958C21.7654 51.3958 23.8547 49.3065 23.8547 46.7292C23.8547 44.1518 21.7654 42.0625 19.188 42.0625C16.6107 42.0625 14.5214 44.1518 14.5214 46.7292C14.5214 49.3065 16.6107 51.3958 19.188 51.3958Z" stroke="#32CD32" stroke-width="3.5" stroke-linecap="round" stroke-linejoin="round"/>
<path id="Vector_4" d="M37.8539 51.3958C40.4313 51.3958 42.5206 49.3065 42.5206 46.7292C42.5206 44.1518 40.4313 42.0625 37.8539 42.0625C35.2766 42.0625 33.1873 44.1518 33.1873 46.7292C33.1873 49.3065 35.2766 51.3958 37.8539 51.3958Z" stroke="#32CD32" stroke-width="3.5" stroke-linecap="round" stroke-linejoin="round"/>
<path id="Vector_5" d="M51.8547 28.0625V32.7292H44.8547C43.5714 32.7292 42.5214 31.6792 42.5214 30.3958V23.3958C42.5214 22.1125 43.5714 21.0625 44.8547 21.0625H47.8646L51.8547 28.0625Z" stroke="#32CD32" stroke-width="3.5" stroke-linecap="round" stroke-linejoin="round"/>
<g id="Group">
<path id="Vector_6" d="M21.5195 11.7318C21.5195 14.5318 20.2828 17.0284 18.3462 18.7318C16.6895 20.1784 14.5428 21.0651 12.1861 21.0651C7.02945 21.0651 2.85278 16.8884 2.85278 11.7318C2.85278 8.79177 4.20612 6.15512 6.35278 4.45178C7.96278 3.16845 9.99278 2.39844 12.1861 2.39844C17.3428 2.39844 21.5195 6.5751 21.5195 11.7318Z" stroke="#32CD32" stroke-width="3.5" stroke-miterlimit="10" stroke-linecap="round" stroke-linejoin="round"/>
<path id="Vector_7" d="M12.7695 8.81641V12.3164L9.85278 14.0664" stroke="#32CD32" stroke-width="3.5" stroke-miterlimit="10" stroke-linecap="round" stroke-linejoin="round"/>
</g>
</g>
</g>
</g>
</svg>
