<svg width="46" height="46" viewBox="0 0 46 46" fill="none" xmlns="http://www.w3.org/2000/svg">
<g id="icon" clip-path="url(#clip0_2384_995)">
<path id="Vector" d="M22.4842 0.953125C10.5547 0.953125 0.884155 10.6236 0.884155 22.5531C0.884155 34.4826 10.5547 44.1531 22.4842 44.1531C34.4137 44.1531 44.0842 34.4826 44.0842 22.5531C44.0842 10.6236 34.4137 0.953125 22.4842 0.953125ZM30.7912 25.3229C30.7912 25.3229 32.7014 27.2084 33.1717 28.0836C33.1852 28.1016 33.1919 28.1196 33.1964 28.1286C33.3877 28.4504 33.4327 28.7001 33.3382 28.8869C33.1807 29.1974 32.6407 29.3504 32.4562 29.3639H29.0812C28.8472 29.3639 28.3567 29.3031 27.7627 28.8936C27.3059 28.5741 26.8559 28.0499 26.4172 27.5391C25.7624 26.7786 25.1954 26.1216 24.6239 26.1216C24.5513 26.1215 24.4792 26.1329 24.4102 26.1554C23.9782 26.2949 23.4247 26.9114 23.4247 28.5539C23.4247 29.0669 23.0197 29.3616 22.7339 29.3616H21.1882C20.6617 29.3616 17.9189 29.1771 15.4889 26.6144C12.5144 23.4756 9.83691 17.1801 9.81441 17.1216C9.64566 16.7144 9.99441 16.4961 10.3747 16.4961H13.7834C14.2379 16.4961 14.3864 16.7729 14.4899 17.0181C14.6114 17.3039 15.0569 18.4401 15.7882 19.7181C16.9739 21.8016 17.7007 22.6476 18.2834 22.6476C18.3927 22.6463 18.5 22.6185 18.5962 22.5666C19.3567 22.1436 19.2149 19.4324 19.1812 18.8699C19.1812 18.7641 19.1789 17.6571 18.7897 17.1261C18.5107 16.7414 18.0359 16.5951 17.7479 16.5411C17.8645 16.3803 18.0181 16.2499 18.1957 16.1609C18.7177 15.8999 19.6582 15.8616 20.5919 15.8616H21.1117C22.1242 15.8751 22.3852 15.9404 22.7519 16.0326C23.4944 16.2104 23.5102 16.6896 23.4449 18.3299C23.4247 18.7956 23.4044 19.3221 23.4044 19.9431C23.4044 20.0781 23.3977 20.2221 23.3977 20.3751C23.3752 21.2099 23.3482 22.1571 23.9377 22.5464C24.0146 22.5946 24.1034 22.6203 24.1942 22.6206C24.3989 22.6206 25.0154 22.6206 26.6849 19.7564C27.1998 18.8345 27.6472 17.8765 28.0237 16.8899C28.0574 16.8314 28.1564 16.6514 28.2734 16.5816C28.3598 16.5376 28.4555 16.5152 28.5524 16.5164H32.5597C32.9962 16.5164 33.2954 16.5816 33.3517 16.7504C33.4507 17.0181 33.3337 17.8349 31.5044 20.3121L30.6877 21.3899C29.0294 23.5634 29.0294 23.6736 30.7912 25.3229Z" fill="white"/>
</g>
<defs>
<clipPath id="clip0_2384_995">
<rect width="45" height="45" fill="white" transform="translate(0.00146484 0.0625)"/>
</clipPath>
</defs>
</svg>
