<svg width="57" height="57" viewBox="0 0 57 57" fill="none" xmlns="http://www.w3.org/2000/svg">
<g id="icon">
<g id="vuesax/linear/empty-wallet">
<g id="Group">
<path id="Vector" d="M42.1138 31.67C41.1338 32.6267 40.5738 34.0034 40.7138 35.4734C40.9238 37.9934 43.2338 39.8367 45.7538 39.8367H50.1871V42.6134C50.1871 47.4434 46.2438 51.3867 41.4138 51.3867H14.6271C9.79709 51.3867 5.85376 47.4434 5.85376 42.6134V26.9101C5.85376 22.0801 9.79709 18.1367 14.6271 18.1367H41.4138C46.2438 18.1367 50.1871 22.0801 50.1871 26.9101V30.2701H45.4738C44.1671 30.2701 42.9771 30.7834 42.1138 31.67Z" stroke="#32CD32" stroke-width="3.4375" stroke-linecap="round" stroke-linejoin="round"/>
<path id="Vector_2" d="M5.85376 29.0117V18.3485C5.85376 15.5718 7.55709 13.0984 10.1471 12.1184L28.6738 5.11841C31.5671 4.02174 34.6704 6.16847 34.6704 9.27181V18.1384" stroke="#32CD32" stroke-width="3.4375" stroke-linecap="round" stroke-linejoin="round"/>
</g>
<path id="Vector_3" d="M52.659 32.6494V37.4562C52.659 38.7396 51.6323 39.7895 50.3257 39.8361H45.7523C43.2323 39.8361 40.9223 37.9928 40.7123 35.4728C40.5723 34.0028 41.1323 32.6261 42.1123 31.6695C42.9757 30.7828 44.1657 30.2695 45.4723 30.2695H50.3257C51.6323 30.3162 52.659 31.3661 52.659 32.6494Z" stroke="#32CD32" stroke-width="3.4375" stroke-linecap="round" stroke-linejoin="round"/>
<path id="Vector_4" d="M16.3551 28.0469H32.6884" stroke="#32CD32" stroke-width="3.4375" stroke-linecap="round" stroke-linejoin="round"/>
</g>
</g>
</svg>
